<svg xmlns="http://www.w3.org/2000/svg" viewBox="0 0 512 512"><!--!Font Awesome Free 6.5.2 by @fontawesome - https://fontawesome.com License - https://fontawesome.com/license/free Copyright 2024 Fonticons, Inc.--><path d="M503.5 360.3c-1.6-.8-32.4-16.9-76.8-25.8 64.3-75.1 84.1-161.7 84.9-165.6 1.2-5.3-.4-10.9-4.3-14.8-3-3-7.1-4.7-11.3-4.7-1.1 0-2.3 .1-3.4 .4-3.9 .9-86.5 19.6-160.6 79.8 0-1.5 0-2.9 0-4.4 0-118.8-60-213.7-62.5-217.7A16 16 0 0 0 256 0c-5.5 0-10.5 2.8-13.5 7.4-2.6 4-62.5 98.9-62.5 217.7 0 1.5 0 2.9 0 4.4-74-60.2-156.7-78.9-160.6-79.8-1.1-.3-2.3-.4-3.4-.4-4.2 0-8.3 1.7-11.3 4.7A16 16 0 0 0 .4 168.8c.9 4 20.7 90.5 84.9 165.6-44.4 8.9-75.2 25-76.8 25.8a16 16 0 0 0 0 28.3c2.5 1.3 60.8 31.7 133.5 31.7 6.1 0 12-.1 17.5-.3-11.4 22.2-16.5 38.3-16.8 39.2-1.8 5.7-.3 11.9 3.9 16.1a16 16 0 0 0 16.1 4c1.8-.6 37.7-12 77.3-39.3V504c0 4.4 3.6 8 8 8h16c4.4 0 8-3.6 8-8v-64c39.6 27.3 75.5 38.7 77.3 39.3a16 16 0 0 0 16.1-4c4.2-4.2 5.7-10.4 3.9-16.1-.3-.9-5.5-17-16.8-39.2 5.5 .2 11.4 .3 17.5 .3 72.7 0 131-30.4 133.5-31.7 5.2-2.8 8.5-8.2 8.5-14.2 0-5.9-3.3-11.4-8.5-14.2z"/></svg>